<svg width="64" height="64" viewBox="0 0 64 64" fill="none" xmlns="http://www.w3.org/2000/svg">
<path d="M0 11C0 4.92487 4.92487 0 11 0H53C59.0751 0 64 4.92487 64 11V53C64 59.0751 59.0751 64 53 64H11C4.92487 64 0 59.0751 0 53V11Z" fill="#6DD495"/>
<path d="M31.7051 5C33.0464 5.00006 34.1783 5.46075 35.1006 6.38281L57.6162 28.8984C58.5386 29.8209 59 30.9532 59 32.2949C58.9999 33.6364 58.5384 34.7681 57.6162 35.6904L35.6914 57.6152C34.769 58.5376 33.6366 58.999 32.2949 58.999C30.9534 58.999 29.8218 58.5376 28.8994 57.6152L6.38379 35.1006C5.46138 34.1782 5 33.0458 5 31.7041C5.00001 30.3624 5.46139 29.23 6.38379 28.3076L28.3086 6.38281C29.231 5.46054 30.3635 5 31.7051 5ZM21.1074 21.6875C20.8232 21.4593 20.4347 21.3901 20.085 21.5039C19.7336 21.6183 19.4687 21.9002 19.3867 22.248C17.8083 28.9401 19.77 33.1121 21.6924 35.4336C24.3235 38.6102 28.6162 40.4316 33.4688 40.4316C35.9204 40.4316 38.1384 39.4565 39.7334 37.8896C39.768 37.9615 40.434 39.2661 40.6826 41.2295C40.8796 42.6096 42.2958 42.5989 42.6328 42.5225C43.4926 42.328 44.026 41.4975 43.8242 40.6689C43.1801 38.0257 42.3427 36.4903 41.3516 35.4355C40.3091 34.3279 38.8831 33.5791 37.2412 33.1436C35.6015 32.6916 33.8016 32.5342 31.9463 32.21C31.0191 32.0396 30.0632 31.819 29.1455 31.3984C28.2288 30.9834 27.3956 30.2739 26.8936 29.415C26.7493 29.1683 26.8393 28.8549 27.0957 28.7158C27.3214 28.5932 27.6227 28.6376 27.7979 28.874C28.269 29.5056 28.9129 29.9554 29.6758 30.2217C30.4413 30.4874 31.2913 30.6101 32.167 30.6855C33.9248 30.8297 35.7905 30.8096 37.7139 31.1426C39.8648 31.514 41.2052 32.1871 42.2012 32.8457C42.2331 32.557 42.2529 32.2642 42.2529 31.9668C42.2529 27.2991 38.3124 23.501 33.4688 23.501C31.9483 23.501 30.6336 23.6293 29.4746 23.7432C26.2453 24.0582 24.2973 24.2494 21.1074 21.6875Z" fill="white"/>
</svg>
