<svg width="42" height="42" viewBox="0 0 42 42" fill="none" xmlns="http://www.w3.org/2000/svg">
<path d="M20.7783 0.526367C21.7955 0.526471 22.6542 0.875837 23.3535 1.5752L40.4268 18.6484C41.1261 19.3478 41.4755 20.2064 41.4756 21.2236C41.4756 22.2409 41.126 23.0994 40.4268 23.7988L23.8008 40.4248C23.1013 41.1242 22.2429 41.4736 21.2256 41.4736C20.2082 41.4736 19.3498 41.1242 18.6504 40.4248L1.57715 23.3516C0.877747 22.6522 0.528383 21.7936 0.52832 20.7764C0.52832 19.759 0.877773 18.9006 1.57715 18.2012L18.2021 1.5752C18.9016 0.875733 19.7609 0.526368 20.7783 0.526367ZM12.0166 12.2139C11.767 12.0083 11.4253 11.9463 11.1182 12.0488C10.8098 12.1519 10.5778 12.4057 10.5059 12.7188C9.11988 18.7449 10.8423 22.5013 12.5303 24.5918C14.8404 27.4524 18.6093 29.0928 22.8701 29.0928C25.0227 29.0928 26.9706 28.2146 28.3711 26.8037C28.4015 26.8684 28.9858 28.0435 29.2041 29.8115C29.377 31.0537 30.6194 31.0443 30.916 30.9756C31.6709 30.8005 32.1401 30.0528 31.9629 29.3066C31.3973 26.9262 30.6614 25.5436 29.791 24.5938C28.8758 23.5964 27.6242 22.9225 26.1826 22.5303C24.743 22.1233 23.1631 21.9814 21.5342 21.6895C20.72 21.5361 19.88 21.3377 19.0742 20.959C18.2693 20.5852 17.5375 19.9462 17.0967 19.1729C16.97 18.9507 17.0493 18.6682 17.2744 18.543C17.4726 18.4326 17.7378 18.4726 17.8916 18.6855C18.3053 19.2542 18.8703 19.6597 19.54 19.8994C20.212 20.1386 20.9579 20.2485 21.7266 20.3164C23.27 20.4462 24.9079 20.4288 26.5967 20.7285C28.4856 21.063 29.6635 21.6685 30.5381 22.2617C30.5661 22.0019 30.583 21.7384 30.583 21.4707C30.583 17.2675 27.123 13.8477 22.8701 13.8477C21.5351 13.8477 20.3809 13.9629 19.3633 14.0654C16.5278 14.3491 14.8175 14.5209 12.0166 12.2139Z" fill="#6DD495"/>
</svg>
