<svg width="194" height="53" viewBox="0 0 194 53" fill="none" xmlns="http://www.w3.org/2000/svg">
<path d="M170.51 52.4693C170.222 52.4693 169.966 52.3733 169.742 52.1813C169.55 51.9893 169.454 51.7493 169.454 51.4613C169.454 51.3973 169.454 51.3173 169.454 51.2213C169.454 51.1573 169.47 51.0773 169.502 50.9813L173.342 41.7653L164.078 19.8773C164.046 19.7813 164.03 19.6693 164.03 19.5413C164.094 19.2213 164.222 18.9493 164.414 18.7253C164.638 18.5013 164.91 18.3893 165.23 18.3893H173.342C173.822 18.3893 174.174 18.5173 174.398 18.7733C174.622 19.0293 174.782 19.2853 174.878 19.5413L178.814 30.4853L182.894 19.5413C183.022 19.2533 183.198 18.9973 183.422 18.7733C183.678 18.5173 184.046 18.3893 184.526 18.3893H192.542C192.83 18.3893 193.086 18.5013 193.31 18.7253C193.534 18.9173 193.646 19.1413 193.646 19.3973C193.646 19.5893 193.63 19.7493 193.598 19.8773L180.062 51.3173C179.934 51.6053 179.742 51.8613 179.486 52.0853C179.23 52.3413 178.862 52.4693 178.382 52.4693H170.51Z" fill="#6DD495"/>
<path d="M155.475 43.3493C153.171 43.3493 151.107 43.0453 149.283 42.4373C147.491 41.7973 146.067 40.7253 145.011 39.2213C143.987 37.7173 143.475 35.6533 143.475 33.0293V26.7893H139.683C139.331 26.7893 139.027 26.6613 138.771 26.4053C138.515 26.1493 138.387 25.8453 138.387 25.4933V19.6853C138.387 19.3333 138.515 19.0293 138.771 18.7733C139.027 18.5173 139.331 18.3893 139.683 18.3893H143.475V10.5653C143.475 10.2133 143.603 9.90929 143.859 9.65329C144.115 9.39729 144.419 9.26929 144.771 9.26929H153.171C153.523 9.26929 153.827 9.39729 154.083 9.65329C154.339 9.90929 154.467 10.2133 154.467 10.5653V18.3893H160.515C160.867 18.3893 161.171 18.5173 161.427 18.7733C161.683 19.0293 161.811 19.3333 161.811 19.6853V25.4933C161.811 25.8453 161.683 26.1493 161.427 26.4053C161.171 26.6613 160.867 26.7893 160.515 26.7893H154.467V32.0693C154.467 32.8053 154.627 33.3973 154.947 33.8453C155.299 34.2613 155.827 34.4693 156.531 34.4693H160.899C161.251 34.4693 161.555 34.5973 161.811 34.8533C162.067 35.1093 162.195 35.4133 162.195 35.7653V42.0533C162.195 42.4053 162.067 42.7093 161.811 42.9653C161.555 43.2213 161.251 43.3493 160.899 43.3493H155.475Z" fill="#6DD495"/>
<path d="M109.159 43.3493C108.807 43.3493 108.503 43.2213 108.247 42.9653C107.991 42.7093 107.863 42.4053 107.863 42.0533V19.6853C107.863 19.3333 107.991 19.0293 108.247 18.7733C108.503 18.5173 108.807 18.3893 109.159 18.3893H117.559C117.911 18.3893 118.215 18.5173 118.471 18.7733C118.727 19.0293 118.855 19.3333 118.855 19.6853V21.2693C119.655 20.3413 120.759 19.5573 122.167 18.9173C123.575 18.2453 125.127 17.9093 126.823 17.9093C128.455 17.9093 129.975 18.2933 131.383 19.0613C132.791 19.8293 133.927 21.0133 134.791 22.6133C135.687 24.2133 136.135 26.2773 136.135 28.8053V42.0533C136.135 42.4053 136.007 42.7093 135.751 42.9653C135.495 43.2213 135.191 43.3493 134.839 43.3493H125.671C125.319 43.3493 125.015 43.2213 124.759 42.9653C124.503 42.7093 124.375 42.4053 124.375 42.0533V29.1413C124.375 28.2773 124.167 27.6213 123.751 27.1733C123.335 26.7253 122.743 26.5013 121.975 26.5013C121.207 26.5013 120.615 26.7253 120.199 27.1733C119.783 27.6213 119.575 28.2773 119.575 29.1413V42.0533C119.575 42.4053 119.447 42.7093 119.191 42.9653C118.935 43.2213 118.631 43.3493 118.279 43.3493H109.159Z" fill="#6DD495"/>
<path d="M93.6432 43.3493C93.2912 43.3493 92.9872 43.2213 92.7312 42.9653C92.4752 42.7093 92.3472 42.4053 92.3472 42.0533V19.6853C92.3472 19.3333 92.4752 19.0293 92.7312 18.7733C92.9872 18.5173 93.2912 18.3893 93.6432 18.3893H102.235C102.587 18.3893 102.891 18.5173 103.147 18.7733C103.403 19.0293 103.531 19.3333 103.531 19.6853V42.0533C103.531 42.4053 103.403 42.7093 103.147 42.9653C102.891 43.2213 102.587 43.3493 102.235 43.3493H93.6432Z" fill="#6DD495"/>
<path d="M90.6806 8.66536C90.4317 8.41646 90.3073 8.11098 90.3073 7.74895C90.3073 7.38691 90.4317 7.08144 90.6806 6.83253L96.5968 0.916425C96.8457 0.667524 97.1512 0.543073 97.5132 0.543073C97.8752 0.543072 98.1807 0.667523 98.4296 0.916425L104.505 6.99189C104.754 7.24079 104.878 7.54626 104.878 7.9083C104.878 8.27034 104.754 8.57581 104.505 8.82471L98.5889 14.7408C98.34 14.9897 98.0346 15.1142 97.6725 15.1142C97.3105 15.1142 97.005 14.9897 96.7561 14.7408L90.6806 8.66536Z" fill="#6DD495"/>
<path d="M53.0138 43.3493C52.6618 43.3493 52.3578 43.2213 52.1018 42.9653C51.8458 42.7093 51.7178 42.4053 51.7178 42.0533V11.0453C51.7178 10.6933 51.8458 10.3893 52.1018 10.1333C52.3578 9.87733 52.6618 9.74933 53.0138 9.74933H60.5978C61.2378 9.74933 61.7178 9.92533 62.0378 10.2773C62.3578 10.6293 62.5658 10.8853 62.6618 11.0453L69.6218 22.5653L76.5818 11.0453C76.6778 10.8853 76.8858 10.6293 77.2058 10.2773C77.5258 9.92533 78.0058 9.74933 78.6458 9.74933H86.2298C86.5818 9.74933 86.8858 9.87733 87.1418 10.1333C87.3978 10.3893 87.5258 10.6933 87.5258 11.0453V42.0533C87.5258 42.4053 87.3978 42.7093 87.1418 42.9653C86.8858 43.2213 86.5818 43.3493 86.2298 43.3493H77.5418C77.1898 43.3493 76.8858 43.2213 76.6298 42.9653C76.3738 42.7093 76.2458 42.4053 76.2458 42.0533V28.9013L73.0778 34.0853C72.9178 34.3413 72.6938 34.6133 72.4058 34.9013C72.1498 35.1573 71.7818 35.2853 71.3018 35.2853H67.9418C67.4618 35.2853 67.0778 35.1573 66.7898 34.9013C66.5338 34.6133 66.3258 34.3413 66.1658 34.0853L62.9978 28.9013V42.0533C62.9978 42.4053 62.8698 42.7093 62.6138 42.9653C62.3578 43.2213 62.0538 43.3493 61.7018 43.3493H53.0138Z" fill="#6DD495"/>
<path d="M20.25 5C21.2672 5.0001 22.1258 5.34947 22.8252 6.04883L39.8984 23.1221C40.5978 23.8215 40.9472 24.68 40.9473 25.6973C40.9473 26.7145 40.5977 27.5731 39.8984 28.2725L23.2725 44.8984C22.573 45.5978 21.7146 45.9473 20.6973 45.9473C19.6799 45.9473 18.8215 45.5978 18.1221 44.8984L1.04883 27.8252C0.349427 27.1258 6.20848e-05 26.2673 0 25.25C1.68577e-07 24.2327 0.349453 23.3742 1.04883 22.6748L17.6738 6.04883C18.3733 5.34937 19.2326 5 20.25 5ZM12.2129 17.6533C11.9973 17.4804 11.7026 17.4283 11.4375 17.5146C11.1711 17.6014 10.9713 17.8154 10.9092 18.0791C9.71219 23.1538 11.1994 26.3167 12.6572 28.0771C14.6524 30.4861 17.9071 31.8682 21.5869 31.8682C23.4458 31.8681 25.1274 31.1284 26.3369 29.9404C26.3637 29.9961 26.8682 30.9849 27.0566 32.4727C27.206 33.5192 28.2806 33.5111 28.5361 33.4531C29.188 33.3056 29.5924 32.6761 29.4395 32.0479C28.951 30.0434 28.316 28.879 27.5645 28.0791C26.774 27.2392 25.6923 26.6721 24.4473 26.3418C23.2039 25.9991 21.8395 25.8796 20.4326 25.6338C19.7294 25.5046 19.0046 25.3366 18.3086 25.0176C17.6134 24.7028 16.9813 24.1649 16.6006 23.5137C16.4913 23.3266 16.5604 23.0888 16.7549 22.9834C16.926 22.8907 17.1544 22.9243 17.2871 23.1035C17.6443 23.5823 18.1316 23.9241 18.71 24.126C19.2905 24.3275 19.9355 24.4203 20.5996 24.4775C21.9326 24.5868 23.3472 24.5717 24.8057 24.8242C26.437 25.1059 27.4537 25.6157 28.209 26.1152C28.2332 25.8963 28.248 25.6738 28.248 25.4482C28.2478 21.9089 25.2597 19.0293 21.5869 19.0293C20.4341 19.0293 19.4374 19.1265 18.5586 19.2129C16.1097 19.4518 14.6319 19.5962 12.2129 17.6533Z" fill="#6DD495"/>
</svg>
