<svg width="42" height="42" viewBox="0 0 42 42" fill="none" xmlns="http://www.w3.org/2000/svg">
<path d="M20.7783 0.526367C21.7955 0.526471 22.6542 0.875837 23.3535 1.5752L40.4268 18.6484C41.1261 19.3478 41.4755 20.2064 41.4756 21.2236C41.4756 22.2409 41.126 23.0994 40.4268 23.7988L23.8008 40.4248C23.1013 41.1242 22.2429 41.4736 21.2256 41.4736C20.2082 41.4736 19.3498 41.1242 18.6504 40.4248L1.57715 23.3516C0.877747 22.6522 0.528382 21.7937 0.52832 20.7764C0.52832 19.759 0.877773 18.9006 1.57715 18.2012L18.2021 1.5752C18.9016 0.875733 19.7609 0.526368 20.7783 0.526367ZM12.7412 13.1797C12.5257 13.0068 12.2309 12.9547 11.9658 13.041C11.6994 13.1278 11.4997 13.3417 11.4375 13.6055C10.2405 18.6801 11.7278 21.8431 13.1855 23.6035C15.1807 26.0124 18.4355 27.3945 22.1152 27.3945C23.9741 27.3945 25.6558 26.6547 26.8652 25.4668C26.8921 25.5224 27.3965 26.5112 27.585 27.999C27.7343 29.0456 28.8089 29.0375 29.0645 28.9795C29.7163 28.832 30.1208 28.2025 29.9678 27.5742C29.4793 25.5697 28.8444 24.4053 28.0928 23.6055C27.3023 22.7655 26.2206 22.1985 24.9756 21.8682C23.7322 21.5254 22.3678 21.406 20.9609 21.1602C20.2577 21.031 19.5329 20.8629 18.8369 20.5439C18.1417 20.2292 17.5096 19.6913 17.1289 19.04C17.0197 18.8529 17.0887 18.6152 17.2832 18.5098C17.4543 18.4171 17.6827 18.4507 17.8154 18.6299C18.1727 19.1087 18.6599 19.4504 19.2383 19.6523C19.8188 19.8539 20.4638 19.9467 21.1279 20.0039C22.4609 20.1132 23.8755 20.0981 25.334 20.3506C26.9653 20.6323 27.982 21.1421 28.7373 21.6416C28.7615 21.4226 28.7764 21.2002 28.7764 20.9746C28.7761 17.4353 25.788 14.5557 22.1152 14.5557C20.9624 14.5557 19.9657 14.6529 19.0869 14.7393C16.638 14.9781 15.1602 15.1226 12.7412 13.1797Z" fill="#6DD495"/>
</svg>
